<?xml version="1.0" standalone="no"?>
<!DOCTYPE svg PUBLIC "-//W3C//DTD SVG 20010904//EN"
 "http://www.w3.org/TR/2001/REC-SVG-20010904/DTD/svg10.dtd">
<svg version="1.0" xmlns="http://www.w3.org/2000/svg"
 width="260.000000pt" height="260.000000pt" viewBox="0 0 260.000000 260.000000"
 preserveAspectRatio="xMidYMid meet">
<metadata>
Created by potrace 1.11, written by Peter Selinger 2001-2013
</metadata>
<g transform="translate(0.000000,260.000000) scale(0.100000,-0.100000)"
fill="#000000" stroke="none">
<path d="M0 1300 l0 -1300 1300 0 1300 0 0 1300 0 1300 -1300 0 -1300 0 0
-1300z m1382 1009 c163 -34 298 -167 298 -292 0 -60 -64 -189 -121 -244 -89
-84 -166 -108 -396 -122 -186 -11 -246 -34 -337 -132 -54 -57 -69 -80 -86
-136 -37 -120 -26 -282 26 -364 25 -40 91 -97 139 -122 88 -44 278 -63 377
-37 57 15 121 53 142 84 19 30 21 48 11 143 -6 59 -5 77 8 97 23 34 77 50 148
42 160 -18 659 -225 659 -273 0 -12 -32 -18 -165 -29 -127 -10 -129 -13 -156
-192 -35 -228 -110 -314 -331 -373 -95 -26 -336 -37 -446 -20 -295 46 -532
198 -667 429 -97 165 -135 313 -135 524 0 275 82 487 259 671 141 147 376 285
574 337 85 22 127 24 199 9z"/>
<path d="M1205 2191 c-69 -32 -105 -86 -105 -157 0 -107 111 -198 213 -175
169 39 197 262 43 332 -52 24 -100 24 -151 0z"/>
</g>
</svg>
